<svg width="24" height="25" viewBox="0 0 24 25" fill="none" xmlns="http://www.w3.org/2000/svg">
<path d="M12 2.85742C6.5 2.85742 2 7.34742 2 12.8774C2 17.8774 5.66 22.0274 10.44 22.7774V15.7774H7.9V12.8774H10.44V10.6674C10.44 8.15742 11.93 6.77742 14.22 6.77742C15.31 6.77742 16.45 6.96742 16.45 6.96742V9.43742H15.19C13.95 9.43742 13.56 10.2074 13.56 10.9974V12.8774H16.34L15.89 15.7774H13.56V22.7774C15.9164 22.4053 18.0622 21.2029 19.6099 19.3875C21.1576 17.572 22.0054 15.2631 22 12.8774C22 7.34742 17.5 2.85742 12 2.85742Z" fill="white"/>
</svg>
