<svg width="24" height="25" viewBox="0 0 24 25" fill="none" xmlns="http://www.w3.org/2000/svg">
<path d="M7.8 2.81738H16.2C19.4 2.81738 22 5.41738 22 8.61738V17.0174C22 18.5556 21.3889 20.0309 20.3012 21.1186C19.2135 22.2063 17.7383 22.8174 16.2 22.8174H7.8C4.6 22.8174 2 20.2174 2 17.0174V8.61738C2 7.07913 2.61107 5.60387 3.69878 4.51616C4.78649 3.42845 6.26174 2.81738 7.8 2.81738ZM7.6 4.81738C6.64522 4.81738 5.72955 5.19667 5.05442 5.8718C4.37928 6.54693 4 7.4626 4 8.41738V17.2174C4 19.2074 5.61 20.8174 7.6 20.8174H16.4C17.3548 20.8174 18.2705 20.4381 18.9456 19.763C19.6207 19.0878 20 18.1722 20 17.2174V8.41738C20 6.42738 18.39 4.81738 16.4 4.81738H7.6ZM17.25 6.31738C17.5815 6.31738 17.8995 6.44908 18.1339 6.6835C18.3683 6.91792 18.5 7.23586 18.5 7.56738C18.5 7.8989 18.3683 8.21685 18.1339 8.45127C17.8995 8.68569 17.5815 8.81738 17.25 8.81738C16.9185 8.81738 16.6005 8.68569 16.3661 8.45127C16.1317 8.21685 16 7.8989 16 7.56738C16 7.23586 16.1317 6.91792 16.3661 6.6835C16.6005 6.44908 16.9185 6.31738 17.25 6.31738ZM12 7.81738C13.3261 7.81738 14.5979 8.34417 15.5355 9.28185C16.4732 10.2195 17 11.4913 17 12.8174C17 14.1435 16.4732 15.4152 15.5355 16.3529C14.5979 17.2906 13.3261 17.8174 12 17.8174C10.6739 17.8174 9.40215 17.2906 8.46447 16.3529C7.52678 15.4152 7 14.1435 7 12.8174C7 11.4913 7.52678 10.2195 8.46447 9.28185C9.40215 8.34417 10.6739 7.81738 12 7.81738ZM12 9.81738C11.2044 9.81738 10.4413 10.1335 9.87868 10.6961C9.31607 11.2587 9 12.0217 9 12.8174C9 13.613 9.31607 14.3761 9.87868 14.9387C10.4413 15.5013 11.2044 15.8174 12 15.8174C12.7956 15.8174 13.5587 15.5013 14.1213 14.9387C14.6839 14.3761 15 13.613 15 12.8174C15 12.0217 14.6839 11.2587 14.1213 10.6961C13.5587 10.1335 12.7956 9.81738 12 9.81738Z" fill="white"/>
</svg>
