<svg width="24" height="25" viewBox="0 0 24 25" fill="none" xmlns="http://www.w3.org/2000/svg">
<path d="M10 15.8174L15.19 12.8174L10 9.81738V15.8174ZM21.56 7.98738C21.69 8.45738 21.78 9.08738 21.84 9.88738C21.91 10.6874 21.94 11.3774 21.94 11.9774L22 12.8174C22 15.0074 21.84 16.6174 21.56 17.6474C21.31 18.5474 20.73 19.1274 19.83 19.3774C19.36 19.5074 18.5 19.5974 17.18 19.6574C15.88 19.7274 14.69 19.7574 13.59 19.7574L12 19.8174C7.81 19.8174 5.2 19.6574 4.17 19.3774C3.27 19.1274 2.69 18.5474 2.44 17.6474C2.31 17.1774 2.22 16.5474 2.16 15.7474C2.09 14.9474 2.06 14.2574 2.06 13.6574L2 12.8174C2 10.6274 2.16 9.01738 2.44 7.98738C2.69 7.08738 3.27 6.50738 4.17 6.25738C4.64 6.12738 5.5 6.03738 6.82 5.97738C8.12 5.90738 9.31 5.87738 10.41 5.87738L12 5.81738C16.19 5.81738 18.8 5.97738 19.83 6.25738C20.73 6.50738 21.31 7.08738 21.56 7.98738Z" fill="white"/>
</svg>
